HIERARCHY
ROOT hip
{
  OFFSET 0 0 0
  CHANNELS 6 Xposition Yposition Zposition Zrotation Yrotation Xrotation
  JOINT abdomen
  {
    OFFSET 0 20.6881 -0.73152
    CHANNELS 3 Zrotation Xrotation Yrotation
    JOINT chest
    {
      OFFSET 0 11.7043 -0.48768
      CHANNELS 3 Zrotation Xrotation Yrotation
      JOINT neck
      {
        OFFSET 0 22.1894 -2.19456
        CHANNELS 3 Zrotation Xrotation Yrotation
        JOINT head
        {
          OFFSET -0.24384 7.07133 1.2192
          CHANNELS 3 Zrotation Xrotation Yrotation
          JOINT leftEye
          {
            OFFSET 4.14528 8.04674 8.04672
            CHANNELS 3 Zrotation Xrotation Yrotation
            End Site
            {
              OFFSET 1 0 0
            }
          }
          JOINT rightEye
          {
            OFFSET -3.6576 8.04674 8.04672
            CHANNELS 3 Zrotation Xrotation Yrotation
            End Site
            {
              OFFSET 1 0 0
            }
          }
        }
      }
      JOINT rCollar
      {
        OFFSET -2.68224 19.2634 -4.8768
        CHANNELS 3 Zrotation Xrotation Yrotation
        JOINT rShldr
        {
          OFFSET -8.77824 -1.95073 1.46304
          CHANNELS 3 Zrotation Xrotation Yrotation
          JOINT rForeArm
          {
            OFFSET -28.1742 -1.7115 0.48768
            CHANNELS 3 Zrotation Xrotation Yrotation
            JOINT rHand
            {
              OFFSET -22.5879 0.773209 7.07136
              CHANNELS 3 Zrotation Xrotation Yrotation
              JOINT rThumb1
              {
                OFFSET -1.2192 -0.487915 3.41376
                CHANNELS 3 Zrotation Xrotation Yrotation
                JOINT rThumb2
                {
                  OFFSET -3.37035 -0.52449 3.41376
                  CHANNELS 3 Zrotation Xrotation Yrotation
                  End Site
                  {
                    OFFSET -1.78271 -1.18214 1.43049
                  }
                }
              }
              JOINT rIndex1
              {
                OFFSET -7.75947 0.938293 5.60832
                CHANNELS 3 Zrotation Xrotation Yrotation
                JOINT rIndex2
                {
                  OFFSET -2.54057 -0.884171 1.56538
                  CHANNELS 3 Zrotation Xrotation Yrotation
                  End Site
                  {
                    OFFSET -1.62519 -0.234802 1.16502
                  }
                }
              }
              JOINT rMid1
              {
                OFFSET -8.24714 1.18213 3.41376
                CHANNELS 3 Zrotation Xrotation Yrotation
                JOINT rMid2
                {
                  OFFSET -3.10165 -0.590103 1.0647
                  CHANNELS 3 Zrotation Xrotation Yrotation
                  End Site
                  {
                    OFFSET -2.48547 -0.328903 0.83742
                  }
                }
              }
              JOINT rRing1
              {
                OFFSET -8.82822 0.546677 1.51678
                CHANNELS 3 Zrotation Xrotation Yrotation
                JOINT rRing2
                {
                  OFFSET -2.60934 -0.819778 -0.0198488
                  CHANNELS 3 Zrotation Xrotation Yrotation
                  End Site
                  {
                    OFFSET -2.33842 -0.294052 0.168128
                  }
                }
              }
              JOINT rPinky1
              {
                OFFSET -8.27202 -0.0477905 -0.4584
                CHANNELS 3 Zrotation Xrotation Yrotation
                JOINT rPinky2
                {
                  OFFSET -1.82734 -0.647385 -0.700984
                  CHANNELS 3 Zrotation Xrotation Yrotation
                  End Site
                  {
                    OFFSET -1.69225 -0.51767 -0.607171
                  }
                }
              }
            }
          }
        }
      }
      JOINT lCollar
      {
        OFFSET 2.68224 19.2634 -4.8768
        CHANNELS 3 Zrotation Xrotation Yrotation
        JOINT lShldr
        {
          OFFSET 8.77824 -1.95073 1.46304
          CHANNELS 3 Zrotation Xrotation Yrotation
          JOINT lForeArm
          {
            OFFSET 28.1742 -1.7115 0.48768
            CHANNELS 3 Zrotation Xrotation Yrotation
            JOINT lHand
            {
              OFFSET 22.5879 0.773209 7.07136
              CHANNELS 3 Zrotation Xrotation Yrotation
              JOINT lThumb1
              {
                OFFSET 1.2192 -0.487915 3.41376
                CHANNELS 3 Zrotation Xrotation Yrotation
                JOINT lThumb2
                {
                  OFFSET 3.37035 -0.52449 3.41376
                  CHANNELS 3 Zrotation Xrotation Yrotation
                  End Site
                  {
                    OFFSET 1.78271 -1.18214 1.43049
                  }
                }
              }
              JOINT lIndex1
              {
                OFFSET 7.75947 0.938293 5.60832
                CHANNELS 3 Zrotation Xrotation Yrotation
                JOINT lIndex2
                {
                  OFFSET 2.54057 -0.884171 1.56538
                  CHANNELS 3 Zrotation Xrotation Yrotation
                  End Site
                  {
                    OFFSET 1.62519 -0.234802 1.16502
                  }
                }
              }
              JOINT lMid1
              {
                OFFSET 8.24714 1.18213 3.41376
                CHANNELS 3 Zrotation Xrotation Yrotation
                JOINT lMid2
                {
                  OFFSET 3.10165 -0.590103 1.0647
                  CHANNELS 3 Zrotation Xrotation Yrotation
                  End Site
                  {
                    OFFSET 2.48547 -0.328903 0.83742
                  }
                }
              }
              JOINT lRing1
              {
                OFFSET 8.82822 0.546677 1.51678
                CHANNELS 3 Zrotation Xrotation Yrotation
                JOINT lRing2
                {
                  OFFSET 2.60934 -0.819778 -0.0198488
                  CHANNELS 3 Zrotation Xrotation Yrotation
                  End Site
                  {
                    OFFSET 2.33842 -0.294052 0.168128
                  }
                }
              }
              JOINT lPinky1
              {
                OFFSET 8.27202 -0.0477905 -0.4584
                CHANNELS 3 Zrotation Xrotation Yrotation
                JOINT lPinky2
                {
                  OFFSET 1.82734 -0.647385 -0.700984
                  CHANNELS 3 Zrotation Xrotation Yrotation
                  End Site
                  {
                    OFFSET 1.69225 -0.51767 -0.607171
                  }
                }
              }
            }
          }
        }
      }
    }
  }
  JOINT rButtock
  {
    OFFSET -8.77824 4.35084 1.2192
    CHANNELS 3 Zrotation Xrotation Yrotation
    JOINT rThigh
    {
      OFFSET 0 -1.70687 -2.19456
      CHANNELS 3 Zrotation Xrotation Yrotation
      JOINT rShin
      {
        OFFSET 0 -36.8199 0.73152
        CHANNELS 3 Zrotation Xrotation Yrotation
        JOINT rFoot
        {
          OFFSET 0.73152 -45.1104 -5.12064
          CHANNELS 3 Zrotation Xrotation Yrotation
          End Site
          {
            OFFSET -1.1221 -3.69964 12.103
          }
        }
      }
    }
  }
  JOINT lButtock
  {
    OFFSET 8.77824 4.35084 1.2192
    CHANNELS 3 Zrotation Xrotation Yrotation
    JOINT lThigh
    {
      OFFSET 0 -1.70687 -2.19456
      CHANNELS 3 Zrotation Xrotation Yrotation
      JOINT lShin
      {
        OFFSET 0 -36.8199 0.73152
        CHANNELS 3 Zrotation Xrotation Yrotation
        JOINT lFoot
        {
          OFFSET -0.73152 -45.1104 -5.12064
          CHANNELS 3 Zrotation Xrotation Yrotation
          End Site
          {
            OFFSET 1.1221 -3.69964 12.103
          }
        }
      }
    }
  }
}
MOTION
Frames:	4
Frame Time:	0.00833333
7.21319 85.3572 178.53 0.0 0.0 0.0 1.31605 -0.00470383 0.0362377 0.363463 -0.00359459 0.0629625 -2.87329e-14 -7.95139e-16 -3.23025e-16 -8.68875e-14 3.18055e-15 -1.06847e-15 -0.0 0.0 0.0 -0.0 0.0 0.0 -1.43141e-14 2.81482e-17 0.0 -3.01883e-13 5.28022e-16 -3.57812e-15 -5.24806e-12 1.58789e-12 -2.22639e-14 -6.00078e-11 -1.47372e-12 -8.14222e-13 -1.4156e-10 2.46519e-13 -1.78429e-12 -2.44473e-10 4.23014e-13 -3.08752e-12 -1.41553e-10 2.48878e-13 -1.80019e-12 7.73091 5.47488 0.417314 -1.4156e-10 2.46692e-13 -1.78429e-12 2.90554 0.965183 0.102902 -1.41551e-10 2.46791e-13 -1.78986e-12 10.2786 0.731801 0.0259123 -1.41572e-10 2.48878e-13 -1.78111e-12 2.22167 -0.733487 -0.20892 -1.43118e-14 2.83423e-17 -2.98177e-16 -3.06971e-13 9.19379e-16 -5.76476e-15 -5.24046e-12 -1.54973e-12 -4.13472e-14 -6.00247e-11 1.68545e-12 -7.82416e-13 -1.41577e-10 2.87317e-13 -1.78747e-12 -2.44492e-10 4.92986e-13 -3.08434e-12 -1.41585e-10 2.8943e-13 -1.77793e-12 -7.73091 5.47488 -0.417314 -1.41577e-10 2.87542e-13 -1.79065e-12 -2.90554 0.965183 -0.102902 -1.41584e-10 2.87542e-13 -1.78986e-12 -10.2786 0.731801 -0.0259123 -1.41574e-10 2.89033e-13 -1.79701e-12 -2.22167 -0.733487 0.20892 -2.03217e-16 0.0 -3.88251e-19 1.46223 -6.13863 -0.134741 0.00180646 5.56149 0.0541917 -0.477934 0.575022 0.0659423 2.03217e-16 0.0 3.88251e-19 0.54472 -1.92085 0.00800492 0.0089102 -2.07861 0.0733824 0.452838 3.99724 -0.13154
9.0255 83.6686 166.76 177.927 4.4327 -173.077 0.0492068 -1.33598 1.30011 1.15448 0.464137 0.417377 1.26416 -4.43301 0.583164 -1.48481 5.20355 0.27384 -0.0 0.0 0.0 -0.0 0.0 0.0 -1.60923e-14 1.7911e-14 5.40788e-14 22.478 2.01828 -0.355544 -3.95353 -1.74647 6.22809 0.165296 9.03985 1.21411 -2.7186e-10 8.00637e-11 8.08051e-11 -4.66567e-10 1.33156e-10 1.43998e-10 -2.71855e-10 8.0066e-11 8.079e-11 7.73091 5.47488 0.417314 -2.71862e-10 8.00635e-11 8.08068e-11 2.90554 0.965183 0.102902 -2.71854e-10 8.00647e-11 8.07988e-11 10.2786 0.731801 0.0259123 -2.7187e-10 8.00673e-11 8.08053e-11 2.22167 -0.733487 -0.20892 -1.61103e-14 1.79113e-14 5.38225e-14 -22.5002 6.54838 -2.56635 3.53933 -1.49306 -5.6468 -0.283573 11.8631 -1.5412 -1.67644e-10 -1.31943e-10 -6.71995e-11 -2.90938e-10 -2.30223e-10 -1.13876e-10 -1.6765e-10 -1.31942e-10 -6.71889e-11 -7.73091 5.47488 -0.417314 -1.67643e-10 -1.31945e-10 -6.71997e-11 -2.90554 0.965183 -0.102902 -1.6765e-10 -1.31944e-10 -6.7202e-11 -10.2786 0.731801 -0.0259123 -1.67641e-10 -1.31943e-10 -6.72092e-11 -2.22167 -0.733487 0.20892 -2.03217e-16 0.0 -3.88251e-19 2.67673 -7.60351 0.310948 0.043477 10.304 0.197157 -0.952514 -1.57244 -5.31679 2.03217e-16 0.0 3.88251e-19 1.62073 -9.60431 -2.79996 0.0292475 4.61406 0.00724985 0.323767 6.85515 4.66464
9.02033 83.6684 166.761 177.906 4.4313 -173.074 -1.2275 -2.74026 2.63833 1.99747 0.951861 0.791985 2.69509 -9.11228 1.21181 -3.11587 10.7107 0.574342 -0.0 0.0 0.0 -0.0 0.0 0.0 -1.92695e-14 3.93714e-14 1.14053e-13 46.2549 4.15864 -0.737201 -7.72614 -3.52623 12.8359 -0.0972107 18.5763 2.60146 -4.06519e-10 1.61375e-10 1.72384e-10 -6.9588e-10 2.68084e-10 3.06774e-10 -4.06515e-10 1.61377e-10 1.7237e-10 7.73091 5.47488 0.417314 -4.06523e-10 1.61375e-10 1.72388e-10 2.90554 0.965183 0.102902 -4.06514e-10 1.61377e-10 1.72377e-10 10.2786 0.731801 0.0259123 -4.06525e-10 1.6138e-10 1.72381e-10 2.22167 -0.733487 -0.20892 -1.93084e-14 3.93719e-14 1.13841e-13 -45.6457 13.4052 -5.389 6.95625 -3.01902 -11.6185 0.172601 24.4044 -3.41089 -2.09376e-10 -2.71102e-10 -1.27096e-10 -3.64145e-10 -4.72493e-10 -2.14605e-10 -2.09381e-10 -2.711e-10 -1.27085e-10 -7.73091 5.47488 -0.417314 -2.09375e-10 -2.71104e-10 -1.27093e-10 -2.90554 0.965183 -0.102902 -2.09382e-10 -2.71104e-10 -1.27099e-10 -10.2786 0.731801 -0.0259123 -2.09373e-10 -2.71103e-10 -1.27106e-10 -2.22167 -0.733487 0.20892 -2.03217e-16 0.0 -3.88251e-19 3.98716 -9.15019 0.788012 0.0608355 15.317 0.35451 -1.89094 -3.78457 -11.0284 2.03217e-16 0.0 3.88251e-19 1.90456 -17.6588 -5.96949 0.0676929 11.6897 -0.0639868 -0.337616 9.78095 9.81
9.02496 83.668 166.762 177.92 4.4497 -173.068 -2.30806 -3.99063 3.83611 2.71915 1.39937 1.1265 4.06951 -13.2935 1.7923 -4.60851 15.6092 0.849465 -0.0 0.0 0.0 -0.0 0.0 0.0 -1.96487e-14 5.36766e-14 1.62236e-13 67.5096 6.0539 -1.07195 -10.7403 -4.99226 18.7493 -0.772637 27.0677 4.04023 -5.32461e-10 2.39698e-10 2.45984e-10 -9.10755e-10 3.98621e-10 4.38168e-10 -5.32458e-10 2.397e-10 2.4597e-10 7.73091 5.47488 0.417314 -5.32468e-10 2.39697e-10 2.45989e-10 2.90554 0.965183 0.102902 -5.32458e-10 2.39701e-10 2.45976e-10 10.2786 0.731801 0.0259123 -5.32465e-10 2.39704e-10 2.45978e-10 2.22167 -0.733487 -0.20892 -1.97073e-14 5.36772e-14 1.62064e-13 -65.6559 19.4826 -8.11637 9.74728 -4.30546 -16.984 1.43146 35.4742 -5.55914 -2.19777e-10 -3.96405e-10 -1.98024e-10 -3.83828e-10 -6.91655e-10 -3.35458e-10 -2.19781e-10 -3.96404e-10 -1.98011e-10 -7.73091 5.47488 -0.417314 -2.19776e-10 -3.96409e-10 -1.98018e-10 -2.90554 0.965183 -0.102902 -2.19784e-10 -3.96408e-10 -1.98026e-10 -10.2786 0.731801 -0.0259123 -2.19774e-10 -3.96408e-10 -1.98033e-10 -2.22167 -0.733487 0.20892 -2.03217e-16 0.0 -3.88251e-19 5.17521 -10.5313 1.21302 0.0515436 19.7885 0.50381 -3.09977 -5.65673 -16.1571 2.03217e-16 0.0 3.88251e-19 1.32484 -24.7256 -9.14243 0.117605 17.9994 -0.131421 -1.38103 12.2488 14.493
